<svg xmlns="http://www.w3.org/2000/svg" width="576" height="147" viewBox="0 0 576 147">
  <g id="Group_30" data-name="Group 30" transform="translate(-79 -26)">
    <text id="Company_s_Logo" data-name="Company&apos;s Logo" transform="translate(266 120)" fill="#19a5d1" font-size="50" font-family="SegoeUI-Bold, Segoe UI" font-weight="700"><tspan x="0" y="0">Company&apos;s Logo</tspan></text>
    <g id="Group_1" data-name="Group 1">
      <g id="Union_1" data-name="Union 1" transform="translate(79 26)" fill="#c7c7c7">
        <path d="M 71.49959564208984 146.2826538085938 L 65.80425262451172 140.4279937744141 L 65.67331695556641 140.2933959960938 L 65.48615264892578 140.2782592773438 C 57.27275466918945 139.6141357421875 49.34995269775391 137.4818878173828 41.93783187866211 133.9407806396484 C 34.73545455932617 130.4998779296875 28.24789428710938 125.8456344604492 22.65535354614258 120.1073532104492 C 17.05637359619141 114.3624572753906 12.56845378875732 107.7502365112305 9.316253662109375 100.4543762207031 C 5.962513446807861 92.93065643310547 4.038333415985107 84.92447662353516 3.597173452377319 76.65819549560547 L 3.587173461914063 76.47073364257813 L 3.456293344497681 76.33619689941406 L 0.6975467801094055 73.50031280517578 L 3.408213376998901 70.71379852294922 L 3.542133331298828 70.57611846923828 L 3.549453496932983 70.38419342041016 C 4.185933589935303 53.68251419067383 10.97197341918945 37.88157653808594 22.65751266479492 25.89211463928223 C 34.32143402099609 13.92481517791748 49.9005126953125 6.734775066375732 66.52487182617188 5.646454811096191 L 66.71663665771484 5.633894920349121 L 66.85061645507813 5.496155261993408 L 71.49959564208984 0.71706223487854 L 76.22543334960938 5.575075149536133 L 76.35629272460938 5.709595203399658 L 76.5433349609375 5.724794864654541 C 84.75091552734375 6.391695022583008 92.66791534423828 8.524994850158691 100.0744552612305 12.06541538238525 C 107.2714538574219 15.50565528869629 113.7545166015625 20.15789413452148 119.3435516357422 25.89285469055176 C 124.9388732910156 31.63427543640137 129.4247741699219 38.24223327636719 132.6766357421875 45.53317642211914 C 136.0298461914063 53.05133438110352 137.9556732177734 61.05179595947266 138.4005889892578 69.31229400634766 L 138.4106903076172 69.49959564208984 L 138.5414733886719 69.634033203125 L 142.3025512695313 73.50031280517578 L 138.4755706787109 77.43427276611328 L 138.3478698730469 77.56553649902344 L 138.3351745605469 77.74823760986328 C 137.7749328613281 85.80533599853516 135.8011474609375 93.60343170166016 132.4686889648438 100.925895690918 C 129.2333526611328 108.0349578857422 124.8174514770508 114.4876174926758 119.343635559082 120.1046142578125 C 113.8759155273438 125.7153778076172 107.5461730957031 130.2940521240234 100.5302352905273 133.7134704589844 C 93.31801605224609 137.2285614013672 85.60307312011719 139.4048004150391 77.59971618652344 140.1817169189453 L 77.41737365722656 140.1994171142578 L 77.28963470458984 140.3307342529297 L 71.49959564208984 146.2826538085938 Z" stroke="none"/>
        <path d="M 71.49959564208984 145.5655822753906 L 76.93125152587891 139.9820709228516 L 77.18673706054688 139.7194519042969 L 77.55141448974609 139.6840515136719 C 85.49523162841797 138.9129180908203 93.15273284912109 136.7528991699219 100.3111724853516 133.2640075683594 C 107.2751770019531 129.8699188232422 113.5581512451172 125.3250350952148 118.9855346679688 119.7556533813477 C 124.4189758300781 114.1800918579102 128.8022308349609 107.7751770019531 132.0136108398438 100.7187728881836 C 135.3212280273438 93.45091247558594 137.2802886962891 85.71083831787109 137.8363800048828 77.71355438232422 L 137.8617858886719 77.34815216064453 L 138.1171875 77.08561706542969 L 141.6049957275391 73.50031280517578 L 138.1830749511719 69.98267364501953 L 137.9214935302734 69.71377563476563 L 137.9013061523438 69.33917236328125 C 137.4596862792969 61.13995361328125 135.5482330322266 53.198974609375 132.2199859619141 45.73683547973633 C 128.9922332763672 38.49993515014648 124.5394897460938 31.94087409973145 118.9854736328125 26.24183464050293 C 113.4376525878906 20.54915428161621 107.0025100708008 15.93129539489746 99.85881042480469 12.51651477813721 C 92.50749206542969 9.002494812011719 84.6494140625 6.885095119476318 76.50285339355469 6.22315502166748 L 76.12875366210938 6.192755222320557 L 75.86703491210938 5.923715114593506 L 71.49960327148438 1.434129476547241 L 67.20901489257813 5.844795227050781 L 66.94103240966797 6.120275020599365 L 66.55753326416016 6.14537525177002 C 50.05663299560547 7.22561502456665 34.59313201904297 14.3624153137207 23.01557350158691 26.2410945892334 C 11.41659355163574 38.1417350769043 4.680833339691162 53.82549667358398 4.049093246459961 70.40323638916016 L 4.034453392028809 70.78709411621094 L 3.766613483428955 71.06243133544922 L 1.395099878311157 73.50030517578125 L 3.81467342376709 75.98753356933594 L 4.076473236083984 76.25665283203125 L 4.096473217010498 76.63153839111328 C 4.534353256225586 84.83651733398438 6.444193363189697 92.78317260742188 9.772933006286621 100.2507934570313 C 13.00101375579834 107.4925918579102 17.45577430725098 114.0558929443359 23.0134334564209 119.7583923339844 C 28.56471252441406 125.4543380737305 35.00433349609375 130.0741882324219 42.15337371826172 133.4896392822266 C 49.51025390625 137.0043334960938 57.37409210205078 139.1206970214844 65.52645111083984 139.7798919677734 L 65.90077209472656 139.8101501464844 L 66.16265106201172 140.0793609619141 L 71.49959564208984 145.5655822753906 M 71.49959564208984 146.9997100830078 L 65.44585418701172 140.7766418457031 C 31.69931411743164 138.0479125976563 4.912213325500488 110.6818313598633 3.097893476486206 76.68483734130859 L -6.594238129764562e-06 73.50031280517578 L 3.049813508987427 70.36515808105469 C 4.377233505249023 35.53249359130859 31.90727424621582 7.411634922027588 66.49221038818359 5.147514820098877 L 71.49959564208984 -4.95849599246867e-06 L 76.58383178710938 5.22643518447876 C 110.3063735961914 7.966555118560791 137.070068359375 35.31321334838867 138.8998718261719 69.28539276123047 L 143.0001068115234 73.50031280517578 L 138.8339691162109 77.78291320800781 C 136.5312194824219 110.8997344970703 110.5126953125 137.4890594482422 77.64803314208984 140.6793823242188 L 71.49959564208984 146.9997100830078 Z" stroke="none" fill="#707070"/>
      </g>
      <line id="Line_1" data-name="Line 1" y2="146" transform="translate(151.5 26.5)" fill="none" stroke="#19a5d1" stroke-width="1"/>
      <line id="Line_2" data-name="Line 2" x2="142" transform="translate(80.5 99.5)" fill="none" stroke="#19a5d1" stroke-width="1"/>
      <line id="Line_3" data-name="Line 3" y1="90" x2="100" transform="translate(100.5 54.5)" fill="none" stroke="#19a5d1" stroke-width="1"/>
      <line id="Line_4" data-name="Line 4" x2="109" y2="82" transform="translate(96.5 58.5)" fill="none" stroke="#19a5d1" stroke-width="1"/>
    </g>
  </g>
</svg>
